<?xml version="1.0" encoding="utf-8"?>
<!-- Generator: Adobe Illustrator 15.0.2, SVG Export Plug-In . SVG Version: 6.00 Build 0)  -->
<!DOCTYPE svg PUBLIC "-//W3C//DTD SVG 1.1//EN" "http://www.w3.org/Graphics/SVG/1.1/DTD/svg11.dtd">
<svg version="1.1" id="Layer_1" xmlns="http://www.w3.org/2000/svg" xmlns:xlink="http://www.w3.org/1999/xlink" x="0px" y="0px"
	 width="54.462px" height="50px" viewBox="0 0 54.462 50" enable-background="new 0 0 54.462 50" xml:space="preserve">
<path fill-rule="evenodd" clip-rule="evenodd" fill="#34495D" d="M54.423,26.414l0.009,9.981l-3.884-1.623
	C46.509,43.752,37.764,50,27.231,50S7.953,43.752,3.915,34.772L0.03,36.395l0.009-9.981c-0.163-0.606,0.198-1.229,0.804-1.392
	l10.578,4.459L7.68,32.502c3.01,6.935,9.456,11.927,17.278,12.759V17.86c-3.914-1.013-6.818-4.538-6.818-8.769
	C18.14,4.071,22.21,0,27.231,0c5.02,0,9.091,4.071,9.091,9.091c0,4.231-2.903,7.756-6.818,8.769v27.401
	c7.828-0.835,14.236-5.847,17.225-12.803l-3.688-2.978l10.581-4.459C54.226,25.184,54.585,25.808,54.423,26.414z M31.776,9.091
	c0-2.51-2.035-4.545-4.545-4.545c-2.511,0-4.545,2.035-4.545,4.545s2.035,4.545,4.545,4.545
	C29.741,13.636,31.776,11.601,31.776,9.091z"/>
</svg>
